<?xml version="1.0" encoding="UTF-8"?>
<svg id="Layer_1" data-name="Layer 1" xmlns="http://www.w3.org/2000/svg" viewBox="0 0 807 189">
  <defs>
    <style>
      .cls-1 {
        font-family: GeneralSans-Regular, 'General Sans';
      }

      .cls-2 {
        letter-spacing: -.02em;
      }

      .cls-3 {
        letter-spacing: 0em;
      }

      .cls-4 {
        fill: #f42e00;
      }

      .cls-5 {
        font-family: GeneralSans-Semibold, 'General Sans';
        font-weight: 600;
      }

      .cls-6 {
        letter-spacing: -.07em;
      }

      .cls-7 {
        font-size: 71.64px;
      }

      .cls-8 {
        letter-spacing: 0em;
      }
    </style>
  </defs>
  <g>
    <path class="cls-4" d="M164.59,16.82c11.76,28.94,30.72,54.47,51.7,77.41-20.99,23.12-40.19,48.82-51.7,77.95h-57c12.9-28.85,31.09-54.78,52.36-78.06-21.09-22.77-39.85-48.42-51.61-77.3h56.25Z"/>
    <path class="cls-4" d="M6.34,172.18c12.17-29.13,31.08-54.47,51.78-78.05C37.2,71.06,18.82,45.48,6.34,16.82h55.88c13.51,28.28,30.75,54.97,52.86,77.3-21.84,22.87-39.6,49.36-52.86,78.05H6.34Z"/>
  </g>
  <text class="cls-7" transform="translate(261.25 74.73)"><tspan class="cls-5"><tspan class="cls-8" x="0" y="0">F</tspan><tspan x="40.12" y="0">r</tspan><tspan class="cls-2" x="69.34" y="0">av</tspan><tspan x="144.92" y="0">en</tspan></tspan><tspan class="cls-1"><tspan class="cls-6" x="0" y="85.96">T</tspan><tspan class="cls-3" x="37.32" y="85.96">e</tspan><tspan x="76.36" y="85.96">chnol</tspan><tspan class="cls-3" x="253.52" y="85.96">o</tspan><tspan x="293.99" y="85.96">gies Inc</tspan></tspan></text>
</svg>